Coordinates
version=1
nRows=37
nColumns=19
inDegrees=yes

Units are S.I. units (second, meters, Newtons, ...)
If the header above contains a line with 'inDegrees', this indicates whether rotational values are in degrees (yes) or radians (no).

endheader
time	pelvis_to_ground_rx	pelvis_to_ground_ry	pelvis_to_ground_rz	pelvis_to_ground_tx	pelvis_to_ground_ty	pelvis_to_ground_tz	left_hip_abduction	left_hip_rotation	left_hip_flexion	left_knee_flexion	left_ankle_flexion	left_subtalar_angle	right_hip_abduction	right_hip_rotation	right_hip_flexion	right_knee_flexion	right_ankle_flexion	right_subtalar_angle
      0.35000000	     96.89977363	     10.50184126	     -4.01062701	     -1.66169630	     -0.74349656	      0.73101025	    -15.28783464	    -11.60566791	      7.98880016	    -27.37406855	      5.23140934	     -8.21883479	     -0.48279317	    -13.16045655	     30.86019415	    -62.83927694	     -4.54518494	    -13.97034312
      0.36000000	     96.92839855	     11.14168829	     -4.12602750	     -1.65278709	     -0.74437236	      0.73084045	    -15.16821123	    -11.72912529	      7.46707680	    -27.64637201	      5.20908081	     -8.10999756	     -0.93661045	    -12.91205887	     32.19769490	    -60.98751963	     -4.46477724	    -13.92635964
      0.37000000	     96.99481704	     11.78630237	     -4.25066587	     -1.64382188	     -0.74525049	      0.73056828	    -15.07020563	    -11.84723906	      6.93537602	    -27.89137239	      5.20419322	     -7.90084946	     -1.47905977	    -12.72850783	     33.37475649	    -58.90759314	     -4.39664613	    -13.75837669
      0.38000000	     97.03992599	     12.36618185	     -4.23529927	     -1.63475135	     -0.74611600	      0.73016540	    -14.97004587	    -11.83279593	      6.28134050	    -28.16803975	      5.61542189	     -6.83295935	     -2.06500909	    -12.49919211	     34.22809080	    -56.58591380	     -3.95267669	    -12.65226557
      0.39000000	     97.06625786	     12.87561649	     -4.19531833	     -1.62555863	     -0.74699784	      0.72963520	    -14.84610088	    -11.81782405	      5.60128864	    -28.44005014	      5.63302133	     -6.80931245	     -2.65978831	    -12.20922428	     34.87086908	    -53.99943673	     -3.96373563	    -12.56057824
      0.40000000	     97.11422915	     13.34993064	     -4.19828831	     -1.61621687	     -0.74788436	      0.72900838	    -14.75614502	    -12.03327610	      4.89810354	    -28.67109561	      5.81387591	     -6.55583322	     -3.24904340	    -11.99701533	     35.38138597	    -51.17929801	     -4.44425400	    -11.64300538
      0.41000000	     97.16741766	     13.72352097	     -4.12442157	     -1.60663876	     -0.74876486	      0.72819611	    -14.68823982	    -12.14983193	      4.12010310	    -28.92801981	      6.02052255	     -6.36204665	     -3.84198288	    -11.73117546	     35.63289348	    -48.16877471	     -4.73510863	    -10.81162345
      0.42000000	     97.20845695	     14.03219013	     -4.01115054	     -1.59681321	     -0.74966560	      0.72721909	    -14.62267357	    -12.27773452	      3.30031775	    -29.22223877	      6.21105368	     -6.25618249	     -4.39061818	    -11.45541453	     35.66277022	    -44.99201887	     -5.13565098	     -9.98091501
      0.43000000	     97.26840549	     14.27491295	     -3.78638044	     -1.58668750	     -0.75055694	      0.72603273	    -14.61977500	    -12.42680430	      2.33297150	    -29.53396504	      6.33574911	     -6.22185310	     -4.93818723	    -11.15239128	     35.40222929	    -41.74310012	     -5.51580653	     -9.40644521
      0.44000000	     97.28919670	     14.48166982	     -3.62120545	     -1.57626624	     -0.75152245	      0.72468827	    -14.54682957	    -12.51023078	      1.49837988	    -29.98421444	      6.57558544	     -6.23037036	     -5.36154702	    -10.85765598	     35.05025813	    -38.47097280	     -6.29867664	     -8.30914322
      0.45000000	     97.36299052	     14.58845774	     -3.34678833	     -1.56552262	     -0.75244205	      0.72311037	    -14.56557417	    -12.50126237	      0.53527240	    -30.46847137	      6.68148165	     -6.24055530	     -5.84330896	    -10.39088462	     34.44209883	    -35.33610332	     -6.67199834	     -7.76348094
      0.46000000	     97.38622765	     14.72311038	     -3.11266976	     -1.55444946	     -0.75343412	      0.72140200	    -14.51632663	    -12.53107556	     -0.32495689	    -31.10945685	      6.90054328	     -6.26728479	     -6.16849777	    -10.02687850	     33.77693625	    -32.40613966	     -7.49379194	     -6.67594608
      0.47000000	     97.40234814	     14.80930040	     -2.79690706	     -1.54307406	     -0.75442063	      0.71951602	    -14.46139774	    -12.40844392	     -1.20128587	    -31.88582666	      7.00308747	     -6.24953758	     -6.45900672	     -9.55900400	     32.96137331	    -29.83093863	     -7.92135272	     -5.98909358
      0.48000000	     97.38043117	     14.86527934	     -2.50660429	     -1.53144245	     -0.75542963	      0.71753024	    -14.32680135	    -12.13422355	     -1.93227280	    -32.84889915	      7.00343945	     -6.25516706	     -6.66697712	     -8.98763726	     32.13280745	    -27.67617392	     -8.08192704	     -5.71462007
      0.49000000	     97.29473352	     14.92233590	     -2.24281265	     -1.51958220	     -0.75646423	      0.71551019	    -14.09035721	    -11.76928786	     -2.51495114	    -33.99702074	      6.95493962	     -6.23183879	     -6.73608745	     -8.42026451	     31.33262925	    -26.01156279	     -8.24522849	     -5.47960534
      0.50000000	     97.13296730	     14.96969968	     -2.04138192	     -1.50754117	     -0.75752269	      0.71351022	    -13.71830440	    -11.26355500	     -2.87395734	    -35.35739727	      6.82080912	     -6.16940669	     -6.66507365	     -7.80840724	     30.61281383	    -24.86185492	     -8.27996354	     -5.37823861
      0.51000000	     96.88189260	     15.00604667	     -1.89702377	     -1.49536769	     -0.75861658	      0.71156382	    -13.17660384	    -10.55508382	     -2.98053628	    -36.94526530	      6.56082737	     -6.04428236	     -6.44642372	     -7.13831390	     29.98271263	    -24.22782354	     -8.13141166	     -5.45370579
      0.52000000	     96.52493586	     15.04538985	     -1.83731824	     -1.48307696	     -0.75977256	      0.70975598	    -12.46227930	     -9.71937339	     -2.82041390	    -38.73214934	      5.86433253	     -5.49889615	     -6.07704809	     -6.37335009	     29.44424086	    -24.03198690	     -7.48510422	     -6.03388960
      0.53000000	     96.06497587	     15.09324825	     -1.81149891	     -1.47071693	     -0.76097864	      0.70803694	    -11.56797043	     -8.67366104	     -2.40357804	    -40.76368580	      5.22758230	     -5.00873261	     -5.52436411	     -5.65397922	     28.99383721	    -24.28075916	     -6.83407308	     -6.74071100
      0.54000000	     95.49451864	     15.12414905	     -1.83964022	     -1.45832256	     -0.76225679	      0.70648872	    -10.51208459	     -7.46874614	     -1.73485383	    -42.98473967	      4.38991428	     -4.59455152	     -4.81438137	     -4.85359455	     28.60448470	    -24.82724911	     -6.02829178	     -7.48375553
      0.55000000	     94.81799684	     15.15584445	     -1.87362839	     -1.44591685	     -0.76359172	      0.70511860	     -9.32613627	     -6.14103011	     -0.87922664	    -45.37356401	      3.34033942	     -4.18767304	     -3.93762582	     -4.07693343	     28.22388255	    -25.58648602	     -5.10954105	     -8.28301216
      0.56000000	     94.04585332	     15.17036588	     -1.91079404	     -1.43354891	     -0.76498161	      0.70395475	     -8.04552987	     -4.71300381	      0.14698819	    -47.90479186	      2.11345505	     -3.83602012	     -2.90509336	     -3.34415417	     27.83598289	    -26.44960280	     -4.13875605	     -9.06573758
      0.57000000	     93.19951445	     15.16311217	     -1.96167791	     -1.42127628	     -0.76641124	      0.70303970	     -6.72070688	     -3.23565665	      1.33154769	    -50.53822750	      0.73224095	     -3.58041696	     -1.74290020	     -2.69431859	     27.43370057	    -27.31411351	     -3.15056933	     -9.77826784
      0.58000000	     92.28559224	     15.12006336	     -2.03581642	     -1.40914988	     -0.76786196	      0.70241402	     -5.38796279	     -1.74719140	      2.66814668	    -53.24674829	     -0.73752283	     -3.45675355	     -0.46779579	     -2.15043789	     27.00600158	    -28.07037010	     -2.19639135	    -10.37034383
      0.59000000	     91.32906061	     15.02872750	     -2.14602660	     -1.39722698	     -0.76931668	      0.70211623	     -4.09967454	     -0.28398201	      4.14639766	    -55.98659904	     -2.22915950	     -3.49457673	      0.87998480	     -1.72031381	     26.54944304	    -28.64464310	     -1.31948271	    -10.81161915
      0.60000000	     90.34937992	     14.88395571	     -2.30830654	     -1.38555012	     -0.77074910	      0.70217717	     -2.90170076	      1.11366815	      5.76197307	    -58.72122456	     -3.67394625	     -3.71517744	      2.26683296	     -1.41509894	     26.06540514	    -28.97941748	     -0.54285154	    -11.08473967
      0.61000000	     89.37621342	     14.66689300	     -2.47850574	     -1.37414134	     -0.77211371	      0.70259057	     -1.84024225	      2.42357702	      7.43287890	    -61.38982504	     -5.28794910	     -4.98344648	      3.64763350	     -1.23746402	     25.49952081	    -29.05609674	      0.23405411	    -10.84236521
      0.62000000	     88.43951932	     14.40356879	     -2.77996315	     -1.36304131	     -0.77343909	      0.70338371	     -0.94689607	      3.65786356	      9.31326398	    -64.01337277	     -6.13054981	     -5.09351400	      4.97704214	     -1.15757183	     24.96231742	    -28.84148655	      0.66704179	    -10.92311519
      0.63000000	     87.51237562	     14.08924951	     -3.00174182	     -1.35219631	     -0.77470718	      0.70448527	     -0.18347790	      4.78404253	     11.14582735	    -66.52347222	     -6.40269030	     -5.27316193	      6.26966489	     -1.15560796	     24.22947051	    -28.33859666	      0.80651062	    -10.89646031
      0.64000000	     86.74235363	     13.67502597	     -3.38934082	     -1.34166773	     -0.77582522	      0.70591533	      0.27091348	      5.82659663	     13.13648540	    -68.83974847	     -7.70846394	     -6.42001778	      7.37488659	     -1.19997570	     23.57671729	    -27.64899931	      1.46618718	    -10.29232190
      0.65000000	     86.04245344	     13.22737224	     -3.78485681	     -1.33139625	     -0.77687029	      0.70758519	      0.54039479	      6.76234972	     15.16854090	    -71.00722467	     -7.59224416	     -6.77581080	      8.36162934	     -1.21949140	     22.82542768	    -26.73711787	      1.49728120	    -10.10243429
      0.66000000	     85.45996445	     12.74174110	     -4.17320229	     -1.32133288	     -0.77780709	      0.70947155	      0.59443996	      7.58548090	     17.18516986	    -72.94577244	     -7.38982994	     -7.21030139	      9.18437299	     -1.22757558	     21.96959076	    -25.65640983	      1.50720589	     -9.81002120
      0.67000000	     85.00088428	     12.27429108	     -4.55719126	     -1.31146162	     -0.77865622	      0.71150421	      0.43573984	      8.20722866	     19.19226617	    -74.64564010	     -6.84075833	     -7.99614205	      9.85239398	     -1.28642201	     21.05026640	    -24.48172746	      1.49274508	     -9.20538067
      0.68000000	     84.64425839	     11.73030722	     -4.84394559	     -1.30172678	     -0.77939711	      0.71363240	      0.13248143	      8.82717617	     21.08412241	    -76.07385079	     -6.52278189	     -8.34562947	     10.32892967	     -1.02143548	     19.93196740	    -23.19939674	      1.50574414	     -8.94242702
      0.69000000	     84.42518270	     11.19156523	     -5.12213229	     -1.29216260	     -0.78001129	      0.71572804	     -0.35943898	      9.32762664	     22.97178131	    -77.26125616	     -5.41302351	     -9.28395937	     10.64598083	     -0.81984852	     18.84042569	    -22.01497299	      1.45272097	     -8.21472452
      0.70000000	     84.33990717	     10.64569866	     -5.44674285	     -1.28272952	     -0.78051503	      0.71786387	     -1.03441876	      9.72043351	     24.89558129	    -78.16201742	     -4.63185330	     -9.85570002	     10.76412008	     -0.35889691	     17.76219210	    -20.83335563	      1.43128481	     -7.81653171
      0.71000000	     84.33888163	     10.09427073	     -5.65548680	     -1.27337326	     -0.78091786	      0.71992100	     -1.78835990	     10.04314682	     26.68396799	    -78.78877930	     -3.67796826	    -10.49603196	     10.74859445	      0.30722290	     16.56695018	    -19.71440218	      1.36547363	     -7.44227272
